#!OML:ASF F:\VICON\USERDATA\INSTALL\Justin_Nancy\Justin_Nancy.ASF
:FULLY-SPECIFIED
:DEGREES
446
root -0.703035 18.3602 20.4043 6.85548 0.517891 5.047
lowerback 3.26679 -0.74209 -0.189768
upperback 0.436186 -0.95737 2.55824
thorax -1.33688 -0.472273 2.77557
lowerneck -12.751 -3.0461 -10.4002
upperneck 16.0131 -3.04963 5.5008
head 7.26173 -1.60528 3.2032
rclavicle -1.43125e-014 0
rhumerus -39.5036 -28.4465 -67.596
rradius 24.1372
rwrist 8.05418
rhand -16.9651 6.81723
rfingers 7.12502
rthumb 9.26903 -22.959
lclavicle -1.43125e-014 0
lhumerus -46.0368 22.829 72.7682
lradius 31.329
lwrist -5.88744
lhand -20.7874 21.071
lfingers 7.12502
lthumb 5.57963 50.9776
rfemur -8.17846 7.50273 17.6424
rtibia 21.581
rfoot -2.99618 2.98707
rtoes 9.71657
lfemur -10.8167 -7.21648 -18.6999
ltibia 20.4981
lfoot 0.994598 2.61097
ltoes -6.04825
447
root -0.705002 18.3589 20.426 7.013 0.272055 5.12181
lowerback 3.09565 -0.713187 -0.320067
upperback 0.493974 -0.926739 2.55067
thorax -1.18128 -0.458079 2.83638
lowerneck -13.0419 -3.13166 -9.97566
upperneck 16.26 -3.13967 5.01663
head 7.38721 -1.66549 2.96319
rclavicle 1.98785e-016 -9.54166e-015
rhumerus -39.7149 -27.8365 -68.1151
rradius 24.7787
rwrist 7.76156
rhand -16.8336 6.60542
rfingers 7.12502
rthumb 9.3959 -23.1652
lclavicle 1.98785e-016 -9.54166e-015
lhumerus -46.0107 22.9731 73.1312
lradius 31.252
lwrist -5.74631
lhand -20.8441 20.8531
lfingers 7.12502
lthumb 5.52486 50.7611
rfemur -8.33309 7.83349 17.5526
rtibia 21.6119
rfoot -3.0568 2.82111
rtoes 9.25934
lfemur -10.8652 -7.07889 -18.7607
ltibia 20.394
lfoot 0.991495 2.64519
ltoes -5.74758
448
root -0.711036 18.3581 20.4559 7.15639 -0.0314252 5.29595
lowerback 2.92141 -0.662917 -0.600434
upperback 0.572099 -0.872204 2.53163
thorax -1.00241 -0.432141 2.9691
lowerneck -13.3944 -3.15004 -9.86098
upperneck 16.4748 -3.12923 4.87077
head 7.51485 -1.66553 2.89615
rclavicle 1.31198e-014 -2.06736e-014
rhumerus -39.807 -27.382 -68.5359
rradius 25.1611
rwrist 7.79836
rhand -16.8634 6.67874
rfingers 7.12502
rthumb 9.36715 -23.0931
lclavicle 1.31198e-014 -2.06736e-014
lhumerus -45.9456 23.2332 73.4088
lradius 31.0725
lwrist -5.771
lhand -20.8028 21.1892
lfingers 7.12502
lthumb 5.56475 51.0961
rfemur -8.41421 8.33483 17.3759
rtibia 21.6031
rfoot -3.12584 2.50972
rtoes 8.97362
lfemur -10.8979 -6.8406 -18.9336
ltibia 20.3314
lfoot 0.920815 2.61684
ltoes -5.47197
449
root -0.709924 18.3531 20.4859 7.2138 -0.217971 5.51407
lowerback 2.87848 -0.639173 -0.783992
upperback 0.620419 -0.848132 2.45674
thorax -0.928588 -0.420844 2.99331
lowerneck -13.7322 -3.15423 -9.93388
upperneck 16.7981 -3.10841 4.96446
head 7.68177 -1.65241 2.94218
rclavicle -9.74045e-015 1.27222e-014
rhumerus -39.9196 -26.8235 -69.0189
rradius 25.4997
rwrist 7.57067
rhand -16.9505 7.25392
rfingers 7.12502
rthumb 9.28314 -22.5217
lclavicle -9.74045e-015 1.27222e-014
lhumerus -45.9066 23.2973 73.6601
lradius 30.9452
lwrist -5.73828
lhand -20.5183 21.512
lfingers 7.12502
lthumb 5.83943 51.4115
rfemur -8.35015 8.53736 17.1408
rtibia 21.5783
rfoot -3.26568 2.39223
rtoes 8.99156
lfemur -10.811 -6.72777 -19.196
ltibia 20.2787
lfoot 0.833797 2.60987
ltoes -5.56218
450
root -0.701488 18.348 20.4988 7.27557 -0.207098 5.55265
lowerback 3.05809 -0.674951 -0.675377
upperback 0.512753 -0.889997 2.41975
thorax -1.13948 -0.439117 2.89927
lowerneck -13.5592 -3.17404 -9.99477
upperneck 16.8852 -3.16037 5.05578
head 7.68638 -1.6761 2.97907
rclavicle -7.55382e-015 -1.90833e-014
rhumerus -40.2516 -25.8929 -69.5722
rradius 26.0744
rwrist 6.99442
rhand -16.8153 7.20201
rfingers 7.12502
rthumb 9.41355 -22.5678
lclavicle -7.55382e-015 -1.90833e-014
lhumerus -46.0039 23.2164 73.8616
lradius 30.6882
lwrist -5.51357
lhand -20.4183 21.0804
lfingers 7.12502
lthumb 5.936 50.9773
rfemur -8.32433 8.46927 17.0815
rtibia 21.5348
rfoot -3.408 2.40338
rtoes 8.82129
lfemur -10.7917 -6.87769 -19.2422
ltibia 20.2225
lfoot 0.866151 2.67326
ltoes -5.7243
